#!OML:ASF Y:\EmotionMaleHayes\Project 1\Capture day 1\Session 1\Male1.ASF
:FULLY-SPECIFIED
:DEGREES
438
root 33.2902 16.5776 -8.67331 223.455 74.0839 -144.714
lowerback 22.0513 -0.664329 -8.27568
upperback 6.32325 -2.29197 -3.72873
thorax -5.1563 -0.827204 1.23713
lowerneck -25.1693 -0.451084 -1.86567
upperneck 17.2646 -0.829352 3.8857
head 9.61165 -0.0309269 1.54681
rclavicle 1.27222e-014 -1.27222e-014
rhumerus -42.2444 -22.2263 -17.4678
rradius 39.8513
rwrist -22.3763
rhand -28.153 -43.3682
rfingers 7.12502
rthumb -1.53372 -73.3424
lclavicle 1.27222e-014 -1.27222e-014
lhumerus -17.115 -48.6248 100.3
lradius 62.0118
lwrist 9.33737
lhand -16.3042 -19.3029
lfingers 7.12502
lthumb 9.90668 10.444
rfemur -30.5487 -13.267 12.6729
rtibia 51.8274
rfoot -20.1364 -13.7934
rtoes 10.9502
lfemur 4.27093 4.06764 -17.4381
ltibia 25.1042
lfoot -28.4911 10.6866
ltoes -9.87012
439
root 33.4629 16.6739 -8.74033 219.482 73.9628 -149.48
lowerback 22.0665 -0.816543 -9.02016
upperback 6.08434 -2.68219 -3.8414
thorax -5.35705 -0.999965 1.63105
lowerneck -24.7003 -0.323803 -1.61362
upperneck 17.154 -0.753647 3.93149
head 9.48943 0.0232631 1.52971
rclavicle -1.11319e-014 -3.81667e-014
rhumerus -42.0555 -22.1061 -17.5943
rradius 40.1998
rwrist -22.5189
rhand -28.1566 -43.5222
rfingers 7.12502
rthumb -1.53715 -73.4964
lclavicle -1.11319e-014 -3.81667e-014
lhumerus -18.2751 -49.42 101.551
lradius 62.5958
lwrist 8.50955
lhand -15.9941 -20.0261
lfingers 7.12502
lthumb 10.2059 9.70632
rfemur -31.466 -14.0116 14.2966
rtibia 51.3688
rfoot -19.9395 -12.3642
rtoes 10.1745
lfemur 4.86999 3.88305 -18.3459
ltibia 23.418
lfoot -26.237 9.61521
ltoes -11.6128
440
root 33.6498 16.7808 -8.80323 217.053 73.7383 -152.449
lowerback 22.2308 -0.811581 -9.42359
upperback 5.97774 -2.78979 -3.84448
thorax -5.52405 -1.03789 1.88415
lowerneck -24.7339 -0.477249 -1.83174
upperneck 17.2027 -0.990526 4.39268
head 9.52489 -0.0436691 1.69307
rclavicle 4.29375e-014 4.45278e-014
rhumerus -42.0841 -22.3089 -17.5616
rradius 40.6293
rwrist -22.5646
rhand -27.9438 -43.4746
rfingers 7.12502
rthumb -1.3316 -73.4502
lclavicle 4.29375e-014 4.45278e-014
lhumerus -19.3662 -50.6247 102.782
lradius 63.1605
lwrist 8.72773
lhand -16.4077 -21.071
lfingers 7.12502
lthumb 9.80685 8.68063
rfemur -31.9879 -14.0709 16.3629
rtibia 50.3295
rfoot -19.8339 -10.7326
rtoes 12.9468
lfemur 5.69614 3.84174 -18.5921
ltibia 21.7404
lfoot -23.919 8.63174
ltoes -13.5207
441
root 33.8389 16.8851 -8.86727 214.96 73.3482 -155.028
lowerback 22.3377 -0.823281 -9.59779
upperback 5.98769 -2.84309 -3.78593
thorax -5.54802 -1.05813 2.06027
lowerneck -25.1424 -0.794058 -2.28781
upperneck 17.4335 -1.36412 4.821
head 9.69766 -0.18922 1.86745
rclavicle -2.38542e-014 -7.31528e-014
rhumerus -42.043 -22.57 -17.5307
rradius 41.0004
rwrist -22.7546
rhand -27.6058 -43.607
rfingers 7.12502
rthumb -1.00515 -73.5844
lclavicle -2.38542e-014 -7.31528e-014
lhumerus -20.3154 -52.2183 103.959
lradius 63.575
lwrist 10.2118
lhand -17.6043 -22.5339
lfingers 7.12502
lthumb 8.65219 7.26878
rfemur -32.3327 -13.9762 18.4907
rtibia 48.8466
rfoot -19.366 -9.44814
rtoes 8.18958
lfemur 6.48314 3.88504 -18.5916
ltibia 20.279
lfoot -21.3779 7.5208
ltoes -15.0513
442
root 34.0273 16.9905 -8.93938 212.258 72.878 -158.307
lowerback 22.3866 -0.965738 -9.91213
upperback 5.94629 -3.09945 -3.78481
thorax -5.57106 -1.1743 2.30259
lowerneck -24.8867 -0.863717 -2.30157
upperneck 17.1637 -1.50282 5.06747
head 9.56687 -0.228849 1.93115
rclavicle 6.36111e-015 6.36111e-015
rhumerus -41.7691 -22.7 -17.7527
rradius 41.2799
rwrist -22.8331
rhand -27.1521 -43.6557
rfingers 7.12502
rthumb -0.567029 -73.6347
lclavicle 6.36111e-015 6.36111e-015
lhumerus -20.4053 -51.8668 104.126
lradius 64.1729
lwrist 4.88638
lhand -15.2987 -20.6237
lfingers 7.12502
lthumb 10.8766 9.0746
rfemur -32.6441 -13.9504 20.2243
rtibia 46.9701
rfoot -18.4506 -8.02783
rtoes 1.5662
lfemur 7.09568 3.84289 -18.8343
ltibia 18.9355
lfoot -18.7511 6.25079
ltoes -16.0011
443
root 34.2182 17.0974 -9.01503 209.96 72.2221 -161.284
lowerback 22.4766 -1.10605 -9.96612
upperback 5.85286 -3.31108 -3.74649
thorax -5.69193 -1.26747 2.43182
lowerneck -24.8309 -0.972342 -2.31506
upperneck 16.9266 -1.66958 5.20691
head 9.48266 -0.292864 1.95413
rclavicle -3.02153e-014 -2.54444e-014
rhumerus -41.7129 -22.7961 -17.837
rradius 41.4579
rwrist -22.8585
rhand -26.7204 -43.019
rfingers 7.12502
rthumb -0.150035 -72.9987
lclavicle -3.02153e-014 -2.54444e-014
lhumerus -21.2041 -52.6022 104.975
lradius 64.5043
lwrist 4.49046
lhand -15.5319 -21.3168
lfingers 7.12502
lthumb 10.6517 8.39323
rfemur -33.0271 -13.9056 21.9772
rtibia 44.8501
rfoot -17.786 -6.50698
rtoes -4.17062
lfemur 7.50721 3.73817 -18.9478
ltibia 17.6957
lfoot -16.0395 5.17019
ltoes -17.7882
444
root 34.413 17.2004 -9.09718 208.049 71.46 -163.841
lowerback 22.5896 -1.24398 -9.73618
upperback 5.78701 -3.45714 -3.72908
thorax -5.8232 -1.33096 2.36495
lowerneck -24.8551 -1.19776 -2.58467
upperneck 16.6231 -1.99354 5.77103
head 9.40512 -0.39487 2.1447
rclavicle 3.97569e-014 2.8625e-014
rhumerus -41.7432 -22.817 -17.9405
rradius 41.363
rwrist -23.0265
rhand -26.5016 -42.2083
rfingers 7.12502
rthumb 0.0612508 -72.1881
lclavicle 3.97569e-014 2.8625e-014
lhumerus -21.9695 -53.6018 105.724
lradius 64.9044
lwrist 4.46608
lhand -15.9387 -21.752
lfingers 7.12502
lthumb 10.2593 7.97778
rfemur -33.365 -13.9511 23.7567
rtibia 42.629
rfoot -17.0491 -4.91843
rtoes -10.1232
lfemur 8.033 3.52832 -18.9852
ltibia 16.378
lfoot -13.2324 4.22535
ltoes -18.5789
445
root 34.6108 17.2999 -9.18168 205.025 70.8767 -167.585
lowerback 22.6083 -1.29471 -9.90276
upperback 5.76105 -3.55906 -3.85675
thorax -5.84621 -1.36957 2.34487
lowerneck -24.6188 -1.22219 -2.2511
upperneck 16.1625 -2.04399 5.38798
head 9.19679 -0.451696 1.94145
rclavicle 4.77083e-015 -3.49861e-014
rhumerus -41.9787 -23.0661 -17.9678
rradius 41.2697
rwrist -22.9912
rhand -26.4311 -41.6707
rfingers 7.12502
rthumb 0.12942 -71.6504
lclavicle 4.77083e-015 -3.49861e-014
lhumerus -22.7152 -54.6842 106.425
lradius 65.2651
lwrist 4.40931
lhand -16.556 -22.0076
lfingers 7.12502
lthumb 9.66373 7.75075
rfemur -33.6536 -13.7749 24.6435
rtibia 40.1773
rfoot -16.4605 -2.61056
rtoes -10.5188
lfemur 8.59005 3.34121 -19.583
ltibia 14.972
lfoot -10.3108 3.18869
ltoes -17.0892
446
root 34.8107 17.3948 -9.26779 201.736 70.2372 -171.664
lowerback 22.5892 -1.32526 -10.2472
upperback 5.69378 -3.67442 -3.96031
thorax -5.87838 -1.41223 2.45219
lowerneck -24.4086 -1.46845 -2.27178
upperneck 15.8275 -2.35983 5.3764
head 9.05796 -0.609104 1.88993
rclavicle -1.43125e-014 1.06549e-013
rhumerus -42.235 -23.117 -18.0046
rradius 41.3704
rwrist -23.0041
rhand -26.634 -41.5127
rfingers 7.12502
rthumb -0.0666112 -71.4925
lclavicle -1.43125e-014 1.06549e-013
lhumerus -23.6116 -55.4934 107.3
lradius 65.3826
lwrist 4.53884
lhand -17.3806 -22.9796
lfingers 7.12502
lthumb 8.86804 6.81408
rfemur -34.0767 -13.8491 25.2766
rtibia 37.7781
rfoot -15.9812 -0.137148
rtoes -13.42
lfemur 8.94899 3.4039 -20.2553
ltibia 13.7235
lfoot -7.17488 2.05661
ltoes -14.3859
